<mxfile host="app.diagrams.net" modified="2024-07-14T20:12:41.196Z" agent="Mozilla/5.0 (Macintosh; Intel Mac OS X 10_15_7) AppleWebKit/537.36 (KHTML, like Gecko) Chrome/126.0.0.0 Safari/537.36" etag="88F1xGzulUrQH8_3dqMF" version="24.6.5" type="device" pages="3">
  <diagram id="IQ3GSKXfg_-eU6WozovR" name="L1: Context">
    <mxGraphModel dx="934" dy="600" grid="1" gridSize="10" guides="1" tooltips="1" connect="1" arrows="1" fold="1" page="1" pageScale="1" pageWidth="850" pageHeight="1100" math="0" shadow="0">
      <root>
        <mxCell id="0" />
        <mxCell id="1" parent="0" />
        <mxCell id="49wbYsz8vPmdmnc5h5OA-12" value="" style="rounded=0;whiteSpace=wrap;html=1;strokeColor=#000000;strokeWidth=1;fillColor=#e1d5e7;dashed=1;" vertex="1" parent="1">
          <mxGeometry x="115" y="309" width="155" height="130" as="geometry" />
        </mxCell>
        <mxCell id="osSxabv7Dy8EvOA_KzUz-53" value="" style="rounded=0;whiteSpace=wrap;html=1;strokeColor=default;strokeWidth=1;fillColor=#fff2cc;dashed=1;" parent="1" vertex="1">
          <mxGeometry x="467" y="309" width="380" height="230" as="geometry" />
        </mxCell>
        <mxCell id="osSxabv7Dy8EvOA_KzUz-44" value="" style="rounded=0;whiteSpace=wrap;html=1;strokeColor=default;strokeWidth=1;fillColor=#bfd3ed;dashed=1;" parent="1" vertex="1">
          <mxGeometry x="115" y="119" width="485" height="180" as="geometry" />
        </mxCell>
        <mxCell id="osSxabv7Dy8EvOA_KzUz-25" style="edgeStyle=orthogonalEdgeStyle;rounded=0;orthogonalLoop=1;jettySize=auto;html=1;entryX=0;entryY=0.7;entryDx=0;entryDy=0;fillColor=#fff2cc;strokeColor=#000000;" parent="1" source="osSxabv7Dy8EvOA_KzUz-6" target="osSxabv7Dy8EvOA_KzUz-7" edge="1">
          <mxGeometry relative="1" as="geometry">
            <Array as="points">
              <mxPoint x="410" y="241" />
              <mxPoint x="410" y="241" />
            </Array>
          </mxGeometry>
        </mxCell>
        <mxCell id="osSxabv7Dy8EvOA_KzUz-27" style="edgeStyle=orthogonalEdgeStyle;rounded=0;orthogonalLoop=1;jettySize=auto;html=1;entryX=0;entryY=0.3;entryDx=0;entryDy=0;" parent="1" source="osSxabv7Dy8EvOA_KzUz-6" target="osSxabv7Dy8EvOA_KzUz-7" edge="1">
          <mxGeometry relative="1" as="geometry">
            <Array as="points">
              <mxPoint x="410" y="207" />
              <mxPoint x="410" y="207" />
            </Array>
          </mxGeometry>
        </mxCell>
        <mxCell id="osSxabv7Dy8EvOA_KzUz-6" value="Embeddings&lt;br&gt;Model" style="outlineConnect=0;fontColor=#232F3E;gradientColor=none;fillColor=#050505;strokeColor=default;verticalLabelPosition=top;verticalAlign=bottom;align=center;html=1;fontSize=12;fontStyle=0;aspect=fixed;pointerEvents=1;shape=mxgraph.aws4.sagemaker_model;strokeWidth=0;labelPosition=center;shadow=0;expand=1;" parent="1" vertex="1">
          <mxGeometry x="310" y="189" width="70" height="70" as="geometry" />
        </mxCell>
        <mxCell id="osSxabv7Dy8EvOA_KzUz-7" value="Vector&lt;br&gt;DB" style="shape=datastore;whiteSpace=wrap;html=1;" parent="1" vertex="1">
          <mxGeometry x="520" y="181.5" width="60" height="85" as="geometry" />
        </mxCell>
        <mxCell id="osSxabv7Dy8EvOA_KzUz-40" style="edgeStyle=orthogonalEdgeStyle;rounded=0;orthogonalLoop=1;jettySize=auto;html=1;exitX=0;exitY=0.75;exitDx=0;exitDy=0;entryX=0.433;entryY=1.033;entryDx=0;entryDy=0;entryPerimeter=0;" parent="1" source="osSxabv7Dy8EvOA_KzUz-10" target="osSxabv7Dy8EvOA_KzUz-61" edge="1">
          <mxGeometry relative="1" as="geometry">
            <mxPoint x="190" y="419" as="targetPoint" />
            <Array as="points">
              <mxPoint x="650" y="449" />
              <mxPoint x="190" y="449" />
            </Array>
          </mxGeometry>
        </mxCell>
        <mxCell id="osSxabv7Dy8EvOA_KzUz-10" value="&lt;b&gt;AI&lt;br&gt;Agents&lt;/b&gt;" style="rounded=0;whiteSpace=wrap;html=1;" parent="1" vertex="1">
          <mxGeometry x="650" y="319" width="110" height="160" as="geometry" />
        </mxCell>
        <mxCell id="osSxabv7Dy8EvOA_KzUz-11" value="Augumented&lt;br&gt;Prompt" style="shape=note;whiteSpace=wrap;html=1;backgroundOutline=1;darkOpacity=0.05;fillColor=#cbe8c9;align=center;size=24;" parent="1" vertex="1">
          <mxGeometry x="500" y="339" width="100" height="80" as="geometry" />
        </mxCell>
        <mxCell id="osSxabv7Dy8EvOA_KzUz-23" style="edgeStyle=orthogonalEdgeStyle;rounded=0;orthogonalLoop=1;jettySize=auto;html=1;exitX=0.5;exitY=0;exitDx=0;exitDy=0;exitPerimeter=0;fillColor=#fff2cc;strokeColor=#000000;" parent="1" source="osSxabv7Dy8EvOA_KzUz-14" target="osSxabv7Dy8EvOA_KzUz-6" edge="1">
          <mxGeometry relative="1" as="geometry" />
        </mxCell>
        <mxCell id="osSxabv7Dy8EvOA_KzUz-14" value="User &lt;br&gt;Prompt" style="shape=note;size=20;whiteSpace=wrap;html=1;fillColor=#f8cecc;strokeColor=#b85450;" parent="1" vertex="1">
          <mxGeometry x="300" y="339" width="90" height="80" as="geometry" />
        </mxCell>
        <mxCell id="osSxabv7Dy8EvOA_KzUz-63" style="edgeStyle=orthogonalEdgeStyle;curved=1;rounded=0;orthogonalLoop=1;jettySize=auto;html=1;entryX=0;entryY=0.5;entryDx=0;entryDy=0;startArrow=none;startFill=0;endArrow=none;endFill=0;" parent="1" source="osSxabv7Dy8EvOA_KzUz-17" target="osSxabv7Dy8EvOA_KzUz-61" edge="1">
          <mxGeometry relative="1" as="geometry" />
        </mxCell>
        <mxCell id="osSxabv7Dy8EvOA_KzUz-17" value="User" style="sketch=0;outlineConnect=0;fontColor=#232F3E;gradientColor=none;strokeColor=#232F3E;fillColor=#ffffff;dashed=0;verticalLabelPosition=top;verticalAlign=bottom;align=center;html=1;fontSize=12;fontStyle=0;aspect=fixed;shape=mxgraph.aws4.resourceIcon;resIcon=mxgraph.aws4.user;labelPosition=center;" parent="1" vertex="1">
          <mxGeometry x="20" y="349" width="60" height="60" as="geometry" />
        </mxCell>
        <mxCell id="osSxabv7Dy8EvOA_KzUz-26" style="edgeStyle=orthogonalEdgeStyle;rounded=0;orthogonalLoop=1;jettySize=auto;html=1;entryX=0.5;entryY=0;entryDx=0;entryDy=0;entryPerimeter=0;fillColor=#fff2cc;strokeColor=#000000;" parent="1" source="osSxabv7Dy8EvOA_KzUz-7" target="osSxabv7Dy8EvOA_KzUz-11" edge="1">
          <mxGeometry relative="1" as="geometry" />
        </mxCell>
        <mxCell id="osSxabv7Dy8EvOA_KzUz-33" value="&lt;i style=&quot;font-size: 10px;&quot;&gt;Query&lt;/i&gt;" style="text;html=1;align=center;verticalAlign=middle;resizable=0;points=[];autosize=1;strokeColor=none;fillColor=none;fontSize=10;" parent="1" vertex="1">
          <mxGeometry x="415" y="217" width="50" height="30" as="geometry" />
        </mxCell>
        <mxCell id="osSxabv7Dy8EvOA_KzUz-36" value="&lt;i style=&quot;font-size: 10px;&quot;&gt;&lt;span style=&quot;background-color: rgb(255, 255, 255);&quot;&gt;Embeddings&amp;nbsp;&lt;/span&gt;&lt;br style=&quot;&quot;&gt;&lt;span style=&quot;background-color: rgb(255, 255, 255);&quot;&gt;Ingestion&lt;/span&gt;&lt;/i&gt;" style="text;html=1;align=center;verticalAlign=middle;resizable=0;points=[];autosize=1;strokeColor=none;fillColor=none;" parent="1" vertex="1">
          <mxGeometry x="405" y="169" width="80" height="40" as="geometry" />
        </mxCell>
        <mxCell id="osSxabv7Dy8EvOA_KzUz-37" value="&lt;i style=&quot;font-size: 10px;&quot;&gt;Result&lt;/i&gt;" style="text;html=1;align=center;verticalAlign=middle;resizable=0;points=[];autosize=1;strokeColor=none;fillColor=none;fontSize=10;" parent="1" vertex="1">
          <mxGeometry x="500" y="269" width="50" height="30" as="geometry" />
        </mxCell>
        <mxCell id="osSxabv7Dy8EvOA_KzUz-38" value="&lt;i style=&quot;font-size: 10px;&quot;&gt;Output Result&lt;/i&gt;" style="text;html=1;align=center;verticalAlign=middle;resizable=0;points=[];autosize=1;strokeColor=none;fillColor=none;fontSize=10;" parent="1" vertex="1">
          <mxGeometry x="348" y="427" width="80" height="30" as="geometry" />
        </mxCell>
        <mxCell id="49wbYsz8vPmdmnc5h5OA-10" style="edgeStyle=orthogonalEdgeStyle;rounded=0;orthogonalLoop=1;jettySize=auto;html=1;endArrow=none;endFill=0;startArrow=classicThin;startFill=1;" edge="1" parent="1" source="osSxabv7Dy8EvOA_KzUz-42">
          <mxGeometry relative="1" as="geometry">
            <mxPoint x="80" y="231.5" as="targetPoint" />
          </mxGeometry>
        </mxCell>
        <mxCell id="osSxabv7Dy8EvOA_KzUz-42" value="Data &lt;br&gt;Processing" style="rounded=0;whiteSpace=wrap;html=1;" parent="1" vertex="1">
          <mxGeometry x="155" y="194.5" width="80" height="75" as="geometry" />
        </mxCell>
        <mxCell id="osSxabv7Dy8EvOA_KzUz-59" style="edgeStyle=orthogonalEdgeStyle;curved=1;rounded=0;orthogonalLoop=1;jettySize=auto;html=1;entryX=0.004;entryY=0.194;entryDx=0;entryDy=0;entryPerimeter=0;" parent="1" source="osSxabv7Dy8EvOA_KzUz-48" target="osSxabv7Dy8EvOA_KzUz-44" edge="1">
          <mxGeometry relative="1" as="geometry" />
        </mxCell>
        <mxCell id="osSxabv7Dy8EvOA_KzUz-48" value="Level 2" style="rounded=0;whiteSpace=wrap;html=1;fillColor=#d5e8d4;strokeColor=#82b366;strokeWidth=0;" parent="1" vertex="1">
          <mxGeometry x="20" y="119" width="50" height="30" as="geometry" />
        </mxCell>
        <mxCell id="osSxabv7Dy8EvOA_KzUz-64" style="edgeStyle=orthogonalEdgeStyle;curved=1;rounded=0;orthogonalLoop=1;jettySize=auto;html=1;" parent="1" source="osSxabv7Dy8EvOA_KzUz-52" edge="1">
          <mxGeometry relative="1" as="geometry">
            <mxPoint x="780" y="299" as="targetPoint" />
          </mxGeometry>
        </mxCell>
        <mxCell id="osSxabv7Dy8EvOA_KzUz-52" value="Level 2" style="rounded=0;whiteSpace=wrap;html=1;fillColor=#d5e8d4;strokeColor=#82b366;strokeWidth=0;" parent="1" vertex="1">
          <mxGeometry x="675" y="217" width="60" height="30" as="geometry" />
        </mxCell>
        <mxCell id="osSxabv7Dy8EvOA_KzUz-60" value="&lt;font style=&quot;font-size: 20px;&quot;&gt;&lt;b&gt;&lt;u&gt;&lt;span style=&quot;background-color: initial;&quot;&gt;Knowledge Extraction System (KES)&lt;/span&gt;&lt;/u&gt;&lt;/b&gt;&lt;/font&gt;" style="text;html=1;align=center;verticalAlign=middle;resizable=0;points=[];autosize=1;strokeColor=none;fillColor=none;" parent="1" vertex="1">
          <mxGeometry x="205" width="370" height="40" as="geometry" />
        </mxCell>
        <mxCell id="osSxabv7Dy8EvOA_KzUz-61" value="Application" style="rounded=0;whiteSpace=wrap;html=1;" parent="1" vertex="1">
          <mxGeometry x="150" y="349" width="90" height="60" as="geometry" />
        </mxCell>
        <mxCell id="osSxabv7Dy8EvOA_KzUz-65" value="&lt;b&gt;&lt;font face=&quot;Verdana&quot;&gt;Knowledge Retrieval Service&lt;/font&gt;&lt;/b&gt;" style="text;html=1;align=center;verticalAlign=middle;resizable=0;points=[];autosize=1;strokeColor=none;fillColor=none;" parent="1" vertex="1">
          <mxGeometry x="550" y="504" width="220" height="30" as="geometry" />
        </mxCell>
        <mxCell id="osSxabv7Dy8EvOA_KzUz-66" value="&lt;b&gt;&lt;font face=&quot;Verdana&quot;&gt;Data Ingestion Service&lt;/font&gt;&lt;/b&gt;" style="text;html=1;align=left;verticalAlign=middle;resizable=0;points=[];autosize=1;strokeColor=none;fillColor=none;" parent="1" vertex="1">
          <mxGeometry x="267.5" y="119" width="180" height="30" as="geometry" />
        </mxCell>
        <mxCell id="vlpLG25OEq0fYvbnJFTa-1" style="edgeStyle=orthogonalEdgeStyle;rounded=0;orthogonalLoop=1;jettySize=auto;html=1;entryX=0;entryY=0.5;entryDx=0;entryDy=0;entryPerimeter=0;" edge="1" parent="1" source="osSxabv7Dy8EvOA_KzUz-61" target="osSxabv7Dy8EvOA_KzUz-14">
          <mxGeometry relative="1" as="geometry" />
        </mxCell>
        <mxCell id="vlpLG25OEq0fYvbnJFTa-2" style="edgeStyle=orthogonalEdgeStyle;rounded=0;orthogonalLoop=1;jettySize=auto;html=1;entryX=0;entryY=0.5;entryDx=0;entryDy=0;entryPerimeter=0;" edge="1" parent="1" source="osSxabv7Dy8EvOA_KzUz-14" target="osSxabv7Dy8EvOA_KzUz-11">
          <mxGeometry relative="1" as="geometry" />
        </mxCell>
        <mxCell id="vlpLG25OEq0fYvbnJFTa-4" style="edgeStyle=orthogonalEdgeStyle;rounded=0;orthogonalLoop=1;jettySize=auto;html=1;entryX=0.009;entryY=0.375;entryDx=0;entryDy=0;entryPerimeter=0;" edge="1" parent="1" source="osSxabv7Dy8EvOA_KzUz-11" target="osSxabv7Dy8EvOA_KzUz-10">
          <mxGeometry relative="1" as="geometry" />
        </mxCell>
        <mxCell id="49wbYsz8vPmdmnc5h5OA-5" value="" style="group" vertex="1" connectable="0" parent="1">
          <mxGeometry x="29" y="194" width="50" height="70" as="geometry" />
        </mxCell>
        <mxCell id="49wbYsz8vPmdmnc5h5OA-1" value="" style="shape=cylinder3;whiteSpace=wrap;html=1;boundedLbl=1;backgroundOutline=1;size=15;" vertex="1" parent="49wbYsz8vPmdmnc5h5OA-5">
          <mxGeometry y="23.719008264462808" width="50" height="46.280991735537185" as="geometry" />
        </mxCell>
        <mxCell id="49wbYsz8vPmdmnc5h5OA-2" value="" style="shape=cylinder3;whiteSpace=wrap;html=1;boundedLbl=1;backgroundOutline=1;size=15;" vertex="1" parent="49wbYsz8vPmdmnc5h5OA-5">
          <mxGeometry y="12.148760330578511" width="50" height="46.280991735537185" as="geometry" />
        </mxCell>
        <mxCell id="49wbYsz8vPmdmnc5h5OA-4" value="" style="shape=cylinder3;whiteSpace=wrap;html=1;boundedLbl=1;backgroundOutline=1;size=15;" vertex="1" parent="49wbYsz8vPmdmnc5h5OA-5">
          <mxGeometry width="50" height="46.280991735537185" as="geometry" />
        </mxCell>
        <mxCell id="49wbYsz8vPmdmnc5h5OA-3" value="" style="shape=cylinder3;whiteSpace=wrap;html=1;boundedLbl=1;backgroundOutline=1;size=15;" vertex="1" parent="49wbYsz8vPmdmnc5h5OA-5">
          <mxGeometry y="0.5785123966942148" width="50" height="31.818181818181813" as="geometry" />
        </mxCell>
        <mxCell id="49wbYsz8vPmdmnc5h5OA-6" value="&lt;b&gt;&lt;span style=&quot;color: rgb(0, 0, 0); font-family: Helvetica; font-size: 9px; font-style: normal; font-variant-ligatures: normal; font-variant-caps: normal; letter-spacing: normal; orphans: 2; text-indent: 0px; text-transform: none; widows: 2; word-spacing: 0px; -webkit-text-stroke-width: 0px; white-space: nowrap; background-color: rgb(251, 251, 251); text-decoration-thickness: initial; text-decoration-style: initial; text-decoration-color: initial; float: none; display: inline !important;&quot;&gt;Enterprise Knowledge&lt;/span&gt;&lt;br style=&quot;forced-color-adjust: none; color: rgb(0, 0, 0); font-family: Helvetica; font-size: 9px; font-style: normal; font-variant-ligatures: normal; font-variant-caps: normal; letter-spacing: normal; orphans: 2; text-indent: 0px; text-transform: none; widows: 2; word-spacing: 0px; -webkit-text-stroke-width: 0px; white-space: nowrap; background-color: rgb(251, 251, 251); text-decoration-thickness: initial; text-decoration-style: initial; text-decoration-color: initial;&quot;&gt;&lt;/b&gt;&lt;i style=&quot;forced-color-adjust: none; color: rgb(0, 0, 0); font-family: Helvetica; font-size: 9px; font-variant-ligatures: normal; font-variant-caps: normal; font-weight: 400; letter-spacing: normal; orphans: 2; text-indent: 0px; text-transform: none; widows: 2; word-spacing: 0px; -webkit-text-stroke-width: 0px; white-space: nowrap; background-color: rgb(251, 251, 251); text-decoration-thickness: initial; text-decoration-style: initial; text-decoration-color: initial;&quot;&gt;(Documents, Videos,&lt;br style=&quot;forced-color-adjust: none;&quot;&gt;&amp;nbsp;Websites, Diagrams)&lt;/i&gt;" style="text;whiteSpace=wrap;html=1;align=center;" vertex="1" parent="1">
          <mxGeometry x="2" y="263" width="108" height="57" as="geometry" />
        </mxCell>
        <mxCell id="49wbYsz8vPmdmnc5h5OA-11" style="edgeStyle=orthogonalEdgeStyle;rounded=0;orthogonalLoop=1;jettySize=auto;html=1;entryX=0.011;entryY=0.614;entryDx=0;entryDy=0;entryPerimeter=0;" edge="1" parent="1" source="osSxabv7Dy8EvOA_KzUz-42" target="osSxabv7Dy8EvOA_KzUz-6">
          <mxGeometry relative="1" as="geometry" />
        </mxCell>
        <mxCell id="49wbYsz8vPmdmnc5h5OA-13" value="Level 2" style="rounded=0;whiteSpace=wrap;html=1;fillColor=#d5e8d4;strokeColor=#82b366;strokeWidth=0;" vertex="1" parent="1">
          <mxGeometry x="100" y="509" width="50" height="30" as="geometry" />
        </mxCell>
        <mxCell id="49wbYsz8vPmdmnc5h5OA-16" style="edgeStyle=orthogonalEdgeStyle;curved=1;rounded=0;orthogonalLoop=1;jettySize=auto;html=1;exitX=0.5;exitY=0;exitDx=0;exitDy=0;entryX=0.181;entryY=1.03;entryDx=0;entryDy=0;entryPerimeter=0;" edge="1" parent="1" source="49wbYsz8vPmdmnc5h5OA-13" target="49wbYsz8vPmdmnc5h5OA-12">
          <mxGeometry relative="1" as="geometry" />
        </mxCell>
        <mxCell id="EMXtW1XM2IFaAMDubXws-1" value="&lt;b style=&quot;forced-color-adjust: none; font-family: Helvetica; font-size: 15px; font-style: normal; font-variant-ligatures: normal; font-variant-caps: normal; letter-spacing: normal; orphans: 2; text-align: center; text-indent: 0px; text-transform: none; widows: 2; word-spacing: 0px; -webkit-text-stroke-width: 0px; white-space: nowrap; background-color: rgb(251, 251, 251);&quot;&gt;&lt;span style=&quot;forced-color-adjust: none; font-size: 15px;&quot;&gt;&lt;span style=&quot;forced-color-adjust: none; background-color: initial; font-size: 15px;&quot;&gt;Level 1: System Context Diagram&lt;/span&gt;&lt;/span&gt;&lt;/b&gt;" style="text;whiteSpace=wrap;html=1;fontColor=#969696;fontStyle=0;fontSize=15;" vertex="1" parent="1">
          <mxGeometry x="272" y="55" width="250" height="30" as="geometry" />
        </mxCell>
      </root>
    </mxGraphModel>
  </diagram>
  <diagram id="Do5Yi-nUrpJ-TU3zVLvw" name="L2:  DIS">
    <mxGraphModel dx="1099" dy="706" grid="1" gridSize="10" guides="1" tooltips="1" connect="1" arrows="1" fold="1" page="1" pageScale="1" pageWidth="850" pageHeight="1100" math="0" shadow="0">
      <root>
        <mxCell id="0" />
        <mxCell id="1" parent="0" />
        <mxCell id="qwRbH4NGkkBx0wUy_MrU-9" style="edgeStyle=elbowEdgeStyle;rounded=0;orthogonalLoop=1;jettySize=auto;elbow=vertical;html=1;exitX=0.25;exitY=1;exitDx=0;exitDy=0;endArrow=none;endFill=0;startArrow=classicThin;startFill=1;" edge="1" parent="1" source="qwRbH4NGkkBx0wUy_MrU-5">
          <mxGeometry relative="1" as="geometry">
            <mxPoint x="453" y="400" as="targetPoint" />
          </mxGeometry>
        </mxCell>
        <mxCell id="qwRbH4NGkkBx0wUy_MrU-5" value="" style="whiteSpace=wrap;html=1;aspect=fixed;fillColor=#f5f5f5;fontColor=#333333;strokeColor=#969696;" vertex="1" parent="1">
          <mxGeometry x="430.47" y="230" width="89.53" height="89.53" as="geometry" />
        </mxCell>
        <mxCell id="qwRbH4NGkkBx0wUy_MrU-1" style="edgeStyle=elbowEdgeStyle;rounded=0;orthogonalLoop=1;jettySize=auto;elbow=vertical;html=1;entryX=0.5;entryY=0;entryDx=0;entryDy=0;" edge="1" parent="1">
          <mxGeometry relative="1" as="geometry">
            <mxPoint x="671.9999999999998" y="219.94000000000005" as="targetPoint" />
            <mxPoint x="472" y="230" as="sourcePoint" />
            <Array as="points">
              <mxPoint x="570" y="180" />
            </Array>
          </mxGeometry>
        </mxCell>
        <mxCell id="qwRbH4NGkkBx0wUy_MrU-3" style="edgeStyle=elbowEdgeStyle;rounded=0;orthogonalLoop=1;jettySize=auto;elbow=vertical;html=1;entryX=0.5;entryY=1;entryDx=0;entryDy=0;" edge="1" parent="1">
          <mxGeometry relative="1" as="geometry">
            <mxPoint x="654" y="312.47" as="targetPoint" />
            <mxPoint x="475" y="321" as="sourcePoint" />
            <Array as="points">
              <mxPoint x="560" y="341" />
            </Array>
          </mxGeometry>
        </mxCell>
        <mxCell id="93rpx-9AS516aNNzOWQ3-4" value="" style="outlineConnect=0;fontColor=#232F3E;gradientColor=none;fillColor=#050505;strokeColor=default;verticalLabelPosition=bottom;verticalAlign=top;align=center;html=1;fontSize=12;fontStyle=0;aspect=fixed;pointerEvents=1;shape=mxgraph.aws4.sagemaker_model;strokeWidth=0;labelPosition=center;shadow=0;expand=1;" vertex="1" parent="1">
          <mxGeometry x="440" y="241.47" width="70" height="70" as="geometry" />
        </mxCell>
        <mxCell id="qwRbH4NGkkBx0wUy_MrU-10" style="edgeStyle=elbowEdgeStyle;rounded=0;orthogonalLoop=1;jettySize=auto;elbow=vertical;html=1;" edge="1" parent="1" source="93rpx-9AS516aNNzOWQ3-5">
          <mxGeometry relative="1" as="geometry">
            <mxPoint x="675" y="400" as="targetPoint" />
          </mxGeometry>
        </mxCell>
        <mxCell id="93rpx-9AS516aNNzOWQ3-5" value="Vector&lt;br&gt;DB&lt;div&gt;&lt;i&gt;(Regular or Graph)&lt;/i&gt;&lt;/div&gt;" style="shape=datastore;whiteSpace=wrap;html=1;fillColor=none;strokeColor=default;" vertex="1" parent="1">
          <mxGeometry x="620" y="219.94" width="110" height="91.53" as="geometry" />
        </mxCell>
        <mxCell id="93rpx-9AS516aNNzOWQ3-6" value="&lt;i style=&quot;font-size: 10px;&quot;&gt;Data&amp;nbsp;&lt;br&gt;Chunks&lt;/i&gt;" style="text;html=1;align=center;verticalAlign=middle;resizable=0;points=[];autosize=1;strokeColor=none;fillColor=none;fontSize=10;" vertex="1" parent="1">
          <mxGeometry x="370.47" y="238.47000000000003" width="60" height="40" as="geometry" />
        </mxCell>
        <mxCell id="93rpx-9AS516aNNzOWQ3-7" value="&lt;span style=&quot;font-size: 10px; background-color: rgb(255, 255, 255);&quot;&gt;&lt;i&gt;User Prompt&lt;/i&gt;&lt;/span&gt;" style="text;html=1;align=center;verticalAlign=middle;resizable=0;points=[];autosize=1;strokeColor=none;fillColor=none;" vertex="1" parent="1">
          <mxGeometry x="414" y="400" width="80" height="30" as="geometry" />
        </mxCell>
        <mxCell id="93rpx-9AS516aNNzOWQ3-8" value="&lt;i style=&quot;font-size: 10px;&quot;&gt;Embeddings&lt;/i&gt;" style="text;html=1;align=center;verticalAlign=middle;resizable=0;points=[];autosize=1;strokeColor=none;fillColor=none;fontSize=10;" vertex="1" parent="1">
          <mxGeometry x="530" y="158" width="80" height="30" as="geometry" />
        </mxCell>
        <mxCell id="MTiPL73PXNJhoYqY0i4r-1" value="&lt;font style=&quot;font-size: 20px;&quot;&gt;&lt;b&gt;&lt;u&gt;&lt;span style=&quot;background-color: initial;&quot;&gt;Knowledge Extraction System&lt;/span&gt;&lt;/u&gt;&lt;/b&gt;&lt;/font&gt;" style="text;html=1;align=center;verticalAlign=middle;resizable=0;points=[];autosize=1;strokeColor=none;fillColor=none;" vertex="1" parent="1">
          <mxGeometry x="235" width="310" height="40" as="geometry" />
        </mxCell>
        <mxCell id="86cQk14IcCjGzj0LjTL6-1" value="&lt;b style=&quot;forced-color-adjust: none; font-family: Helvetica; font-size: 15px; font-style: normal; font-variant-ligatures: normal; font-variant-caps: normal; letter-spacing: normal; orphans: 2; text-align: center; text-indent: 0px; text-transform: none; widows: 2; word-spacing: 0px; -webkit-text-stroke-width: 0px; white-space: nowrap; background-color: rgb(251, 251, 251);&quot;&gt;&lt;span style=&quot;forced-color-adjust: none; font-size: 15px;&quot;&gt;&lt;span style=&quot;forced-color-adjust: none; background-color: initial; font-size: 15px;&quot;&gt;Level 2: Data Ingestion Service&lt;/span&gt;&lt;/span&gt;&lt;/b&gt;" style="text;whiteSpace=wrap;html=1;fontColor=#969696;fontStyle=0;fontSize=15;" vertex="1" parent="1">
          <mxGeometry x="272" y="55" width="250" height="30" as="geometry" />
        </mxCell>
        <mxCell id="Dt43Sou8rgymxmS0eVFY-34" style="edgeStyle=orthogonalEdgeStyle;rounded=0;orthogonalLoop=1;jettySize=auto;html=1;" edge="1" parent="1">
          <mxGeometry relative="1" as="geometry">
            <mxPoint x="289.9999999999998" y="275" as="targetPoint" />
            <mxPoint x="259.9999999999998" y="275.0588235294117" as="sourcePoint" />
          </mxGeometry>
        </mxCell>
        <mxCell id="Dt43Sou8rgymxmS0eVFY-18" style="edgeStyle=orthogonalEdgeStyle;curved=1;rounded=0;orthogonalLoop=1;jettySize=auto;html=1;entryX=0;entryY=0.816;entryDx=0;entryDy=0;entryPerimeter=0;endArrow=classicThin;endFill=1;" edge="1" parent="1">
          <mxGeometry relative="1" as="geometry">
            <mxPoint x="107" y="422" as="sourcePoint" />
            <mxPoint x="159.99999999999977" y="422" as="targetPoint" />
          </mxGeometry>
        </mxCell>
        <mxCell id="Dt43Sou8rgymxmS0eVFY-19" style="edgeStyle=orthogonalEdgeStyle;curved=1;rounded=0;orthogonalLoop=1;jettySize=auto;html=1;entryX=-0.008;entryY=0.616;entryDx=0;entryDy=0;entryPerimeter=0;endArrow=classicThin;endFill=1;" edge="1" parent="1">
          <mxGeometry relative="1" as="geometry">
            <mxPoint x="107.99999999999977" y="360" as="sourcePoint" />
            <mxPoint x="159.19999999999982" y="360" as="targetPoint" />
          </mxGeometry>
        </mxCell>
        <mxCell id="Dt43Sou8rgymxmS0eVFY-20" style="edgeStyle=orthogonalEdgeStyle;curved=1;rounded=0;orthogonalLoop=1;jettySize=auto;html=1;entryX=-0.025;entryY=0.384;entryDx=0;entryDy=0;entryPerimeter=0;" edge="1" parent="1">
          <mxGeometry relative="1" as="geometry">
            <mxPoint x="107.50000000000023" y="294.0000000000001" as="sourcePoint" />
            <mxPoint x="157.49999999999977" y="294.0000000000001" as="targetPoint" />
          </mxGeometry>
        </mxCell>
        <mxCell id="Dt43Sou8rgymxmS0eVFY-21" style="edgeStyle=orthogonalEdgeStyle;curved=1;rounded=0;orthogonalLoop=1;jettySize=auto;html=1;entryX=-0.008;entryY=0.176;entryDx=0;entryDy=0;entryPerimeter=0;" edge="1" parent="1">
          <mxGeometry relative="1" as="geometry">
            <mxPoint x="107.50000000000023" y="194" as="sourcePoint" />
            <mxPoint x="159.19999999999982" y="194" as="targetPoint" />
          </mxGeometry>
        </mxCell>
        <mxCell id="qwRbH4NGkkBx0wUy_MrU-8" style="edgeStyle=elbowEdgeStyle;rounded=0;orthogonalLoop=1;jettySize=auto;elbow=vertical;html=1;" edge="1" parent="1">
          <mxGeometry relative="1" as="geometry">
            <mxPoint x="429.9999999999998" y="276.7049999999999" as="targetPoint" />
            <mxPoint x="370.0000000000002" y="276.3529411764706" as="sourcePoint" />
          </mxGeometry>
        </mxCell>
        <mxCell id="qwRbH4NGkkBx0wUy_MrU-2" value="&lt;span style=&quot;color: rgb(35, 47, 62); font-family: Helvetica; font-size: 12px; font-style: normal; font-variant-ligatures: normal; font-variant-caps: normal; font-weight: 400; letter-spacing: normal; orphans: 2; text-align: center; text-indent: 0px; text-transform: none; widows: 2; word-spacing: 0px; -webkit-text-stroke-width: 0px; white-space: nowrap; background-color: rgb(251, 251, 251); text-decoration-thickness: initial; text-decoration-style: initial; text-decoration-color: initial; display: inline !important; float: none;&quot;&gt;Embeddings&lt;/span&gt;&lt;br style=&quot;forced-color-adjust: none; color: rgb(35, 47, 62); font-family: Helvetica; font-size: 12px; font-style: normal; font-variant-ligatures: normal; font-variant-caps: normal; font-weight: 400; letter-spacing: normal; orphans: 2; text-align: center; text-indent: 0px; text-transform: none; widows: 2; word-spacing: 0px; -webkit-text-stroke-width: 0px; white-space: nowrap; background-color: rgb(251, 251, 251); text-decoration-thickness: initial; text-decoration-style: initial; text-decoration-color: initial;&quot;&gt;&lt;span style=&quot;color: rgb(35, 47, 62); font-family: Helvetica; font-size: 12px; font-style: normal; font-variant-ligatures: normal; font-variant-caps: normal; font-weight: 400; letter-spacing: normal; orphans: 2; text-align: center; text-indent: 0px; text-transform: none; widows: 2; word-spacing: 0px; -webkit-text-stroke-width: 0px; white-space: nowrap; background-color: rgb(251, 251, 251); text-decoration-thickness: initial; text-decoration-style: initial; text-decoration-color: initial; display: inline !important; float: none;&quot;&gt;Model&lt;/span&gt;" style="text;whiteSpace=wrap;html=1;" vertex="1" parent="1">
          <mxGeometry x="522" y="259.77" width="70" height="30" as="geometry" />
        </mxCell>
        <mxCell id="qwRbH4NGkkBx0wUy_MrU-4" value="&lt;i style=&quot;font-size: 10px;&quot;&gt;Query&lt;/i&gt;" style="text;html=1;align=center;verticalAlign=middle;resizable=0;points=[];autosize=1;strokeColor=none;fillColor=none;fontSize=10;" vertex="1" parent="1">
          <mxGeometry x="547" y="335" width="50" height="30" as="geometry" />
        </mxCell>
        <mxCell id="nl_Egu4imAR9o_nuHrb0-1" value="&lt;span style=&quot;font-size: 10px; background-color: rgb(255, 255, 255);&quot;&gt;&lt;i&gt;Query Result&lt;/i&gt;&lt;/span&gt;" style="text;html=1;align=center;verticalAlign=middle;resizable=0;points=[];autosize=1;strokeColor=none;fillColor=none;" vertex="1" parent="1">
          <mxGeometry x="635" y="400" width="80" height="30" as="geometry" />
        </mxCell>
        <mxCell id="RJXXtSjSS3QT3LCxNwAX-1" value="&lt;b&gt;Data&amp;nbsp;&lt;br&gt;Pre-processor&lt;/b&gt;" style="rounded=1;whiteSpace=wrap;html=1;fillColor=#969696;strokeColor=none;" vertex="1" parent="1">
          <mxGeometry x="160" y="164" width="100" height="286" as="geometry" />
        </mxCell>
        <mxCell id="RJXXtSjSS3QT3LCxNwAX-3" value="Documents" style="html=1;verticalLabelPosition=bottom;align=center;labelBackgroundColor=#ffffff;verticalAlign=top;strokeWidth=2;strokeColor=#0080F0;shadow=0;dashed=0;shape=mxgraph.ios7.icons.documents;" vertex="1" parent="1">
          <mxGeometry x="63" y="278" width="30" height="33.47" as="geometry" />
        </mxCell>
        <mxCell id="RJXXtSjSS3QT3LCxNwAX-4" value="Audio &amp;amp; Video" style="html=1;verticalLabelPosition=bottom;align=center;labelBackgroundColor=#ffffff;verticalAlign=top;strokeWidth=2;strokeColor=#0080F0;shadow=0;dashed=0;shape=mxgraph.ios7.icons.video_conversation;" vertex="1" parent="1">
          <mxGeometry x="60" y="350" width="36" height="20" as="geometry" />
        </mxCell>
        <mxCell id="RJXXtSjSS3QT3LCxNwAX-5" value="Technical Diagrams&lt;br&gt;&amp;amp; Other Pictures" style="shape=image;html=1;verticalAlign=top;verticalLabelPosition=bottom;labelBackgroundColor=#ffffff;imageAspect=0;aspect=fixed;image=https://cdn4.iconfinder.com/data/icons/evil-icons-user-interface/64/picture-128.png;imageBackground=none;" vertex="1" parent="1">
          <mxGeometry x="47" y="393" width="60" height="60" as="geometry" />
        </mxCell>
        <mxCell id="RJXXtSjSS3QT3LCxNwAX-10" value="Wiki &amp;amp; Web&lt;br&gt;Pages" style="sketch=0;pointerEvents=1;shadow=0;dashed=0;html=1;strokeColor=none;fillColor=#505050;labelPosition=center;verticalLabelPosition=bottom;verticalAlign=top;outlineConnect=0;align=center;shape=mxgraph.office.concepts.web_page;" vertex="1" parent="1">
          <mxGeometry x="60" y="170" width="50" height="54" as="geometry" />
        </mxCell>
        <mxCell id="RJXXtSjSS3QT3LCxNwAX-11" value="Data&lt;br&gt;Chunker" style="rounded=1;whiteSpace=wrap;html=1;" vertex="1" parent="1">
          <mxGeometry x="290" y="232.77" width="80" height="85.23" as="geometry" />
        </mxCell>
      </root>
    </mxGraphModel>
  </diagram>
  <diagram name="L2: KRS" id="b4Y0_WHi4mjiEJA2zrHK">
    <mxGraphModel dx="934" dy="600" grid="1" gridSize="10" guides="1" tooltips="1" connect="1" arrows="1" fold="1" page="1" pageScale="1" pageWidth="850" pageHeight="1100" math="0" shadow="0">
      <root>
        <mxCell id="NX4XYnB-upziRBIt7shQ-0" />
        <mxCell id="NX4XYnB-upziRBIt7shQ-1" parent="NX4XYnB-upziRBIt7shQ-0" />
        <mxCell id="NX4XYnB-upziRBIt7shQ-13" value="&lt;font style=&quot;font-size: 20px;&quot;&gt;&lt;b&gt;&lt;u&gt;&lt;span style=&quot;background-color: initial;&quot;&gt;Knowledge Extraction System&lt;/span&gt;&lt;/u&gt;&lt;/b&gt;&lt;/font&gt;" style="text;html=1;align=center;verticalAlign=middle;resizable=0;points=[];autosize=1;strokeColor=none;fillColor=none;" vertex="1" parent="NX4XYnB-upziRBIt7shQ-1">
          <mxGeometry x="235" width="310" height="40" as="geometry" />
        </mxCell>
        <mxCell id="NX4XYnB-upziRBIt7shQ-19" value="&lt;b style=&quot;forced-color-adjust: none; font-family: Helvetica; font-size: 15px; font-style: normal; font-variant-ligatures: normal; font-variant-caps: normal; letter-spacing: normal; orphans: 2; text-align: center; text-indent: 0px; text-transform: none; widows: 2; word-spacing: 0px; -webkit-text-stroke-width: 0px; white-space: nowrap; background-color: rgb(251, 251, 251);&quot;&gt;&lt;span style=&quot;forced-color-adjust: none; font-size: 15px;&quot;&gt;&lt;span style=&quot;forced-color-adjust: none; background-color: initial; font-size: 15px;&quot;&gt;Level 2: Knowledge Retrieval Service&lt;/span&gt;&lt;/span&gt;&lt;/b&gt;" style="text;whiteSpace=wrap;html=1;fontColor=#969696;fontStyle=0;fontSize=15;" vertex="1" parent="NX4XYnB-upziRBIt7shQ-1">
          <mxGeometry x="251" y="55" width="278" height="35" as="geometry" />
        </mxCell>
        <mxCell id="b-WuG7lMmvFp4cQlwH-K-1" style="edgeStyle=elbowEdgeStyle;rounded=0;orthogonalLoop=1;jettySize=auto;elbow=vertical;html=1;startArrow=classicThin;startFill=1;endArrow=none;endFill=0;entryX=1;entryY=0.5;entryDx=0;entryDy=0;" edge="1" parent="NX4XYnB-upziRBIt7shQ-1" source="b-WuG7lMmvFp4cQlwH-K-0" target="m4i0xq7XcvS2uddOrQqP-0">
          <mxGeometry relative="1" as="geometry">
            <mxPoint x="86" y="241" as="targetPoint" />
          </mxGeometry>
        </mxCell>
        <mxCell id="Cpm7kUXZ52MSqkf3I4yN-5" style="edgeStyle=elbowEdgeStyle;rounded=0;orthogonalLoop=1;jettySize=auto;elbow=vertical;html=1;" edge="1" parent="NX4XYnB-upziRBIt7shQ-1" source="b-WuG7lMmvFp4cQlwH-K-0" target="Cpm7kUXZ52MSqkf3I4yN-4">
          <mxGeometry relative="1" as="geometry" />
        </mxCell>
        <mxCell id="b-WuG7lMmvFp4cQlwH-K-0" value="Prompt&lt;br&gt;Template" style="rounded=1;whiteSpace=wrap;html=1;" vertex="1" parent="NX4XYnB-upziRBIt7shQ-1">
          <mxGeometry x="346" y="211" width="120" height="60" as="geometry" />
        </mxCell>
        <mxCell id="b-WuG7lMmvFp4cQlwH-K-2" value="&lt;div style=&quot;text-align: center;&quot;&gt;&lt;span style=&quot;background-color: initial;&quot;&gt;Vector DB&lt;br&gt;Query Result&lt;/span&gt;&lt;/div&gt;" style="text;whiteSpace=wrap;html=1;fontStyle=2" vertex="1" parent="NX4XYnB-upziRBIt7shQ-1">
          <mxGeometry x="166" y="156" width="60" height="40" as="geometry" />
        </mxCell>
        <mxCell id="Cpm7kUXZ52MSqkf3I4yN-1" style="edgeStyle=elbowEdgeStyle;rounded=0;orthogonalLoop=1;jettySize=auto;elbow=vertical;html=1;exitX=0.5;exitY=0;exitDx=0;exitDy=0;startArrow=classicThin;startFill=1;endArrow=none;endFill=0;" edge="1" parent="NX4XYnB-upziRBIt7shQ-1" source="m4i0xq7XcvS2uddOrQqP-0">
          <mxGeometry relative="1" as="geometry">
            <mxPoint x="166" y="151" as="targetPoint" />
          </mxGeometry>
        </mxCell>
        <mxCell id="m4i0xq7XcvS2uddOrQqP-0" value="Prompt&amp;nbsp;&lt;br&gt;Augumenter" style="rounded=1;whiteSpace=wrap;html=1;" vertex="1" parent="NX4XYnB-upziRBIt7shQ-1">
          <mxGeometry x="106" y="211" width="120" height="60" as="geometry" />
        </mxCell>
        <mxCell id="Cpm7kUXZ52MSqkf3I4yN-3" value="&lt;span style=&quot;color: rgb(0, 0, 0); font-family: Helvetica; font-size: 12px; font-variant-ligatures: normal; font-variant-caps: normal; font-weight: 400; letter-spacing: normal; orphans: 2; text-indent: 0px; text-transform: none; widows: 2; word-spacing: 0px; -webkit-text-stroke-width: 0px; white-space: normal; background-color: rgb(251, 251, 251); text-decoration-thickness: initial; text-decoration-style: initial; text-decoration-color: initial; float: none; display: inline !important;&quot;&gt;Augumented&lt;/span&gt;&lt;br style=&quot;forced-color-adjust: none; color: rgb(0, 0, 0); font-family: Helvetica; font-size: 12px; font-variant-ligatures: normal; font-variant-caps: normal; font-weight: 400; letter-spacing: normal; orphans: 2; text-indent: 0px; text-transform: none; widows: 2; word-spacing: 0px; -webkit-text-stroke-width: 0px; white-space: normal; background-color: rgb(251, 251, 251); text-decoration-thickness: initial; text-decoration-style: initial; text-decoration-color: initial;&quot;&gt;&lt;span style=&quot;color: rgb(0, 0, 0); font-family: Helvetica; font-size: 12px; font-variant-ligatures: normal; font-variant-caps: normal; font-weight: 400; letter-spacing: normal; orphans: 2; text-indent: 0px; text-transform: none; widows: 2; word-spacing: 0px; -webkit-text-stroke-width: 0px; white-space: normal; background-color: rgb(251, 251, 251); text-decoration-thickness: initial; text-decoration-style: initial; text-decoration-color: initial; float: none; display: inline !important;&quot;&gt;Prompt&lt;/span&gt;" style="text;whiteSpace=wrap;html=1;align=center;fontStyle=2" vertex="1" parent="NX4XYnB-upziRBIt7shQ-1">
          <mxGeometry x="236" y="201" width="100" height="50" as="geometry" />
        </mxCell>
        <mxCell id="Cpm7kUXZ52MSqkf3I4yN-10" style="edgeStyle=elbowEdgeStyle;rounded=0;orthogonalLoop=1;jettySize=auto;elbow=vertical;html=1;startArrow=classicThin;startFill=1;" edge="1" parent="NX4XYnB-upziRBIt7shQ-1" source="Cpm7kUXZ52MSqkf3I4yN-4" target="Cpm7kUXZ52MSqkf3I4yN-9">
          <mxGeometry relative="1" as="geometry" />
        </mxCell>
        <mxCell id="3lxN1gigSJOIWcfk6UuN-1" style="edgeStyle=elbowEdgeStyle;rounded=0;orthogonalLoop=1;jettySize=auto;elbow=vertical;html=1;" edge="1" parent="NX4XYnB-upziRBIt7shQ-1">
          <mxGeometry relative="1" as="geometry">
            <mxPoint x="601" y="271" as="sourcePoint" />
            <mxPoint x="601" y="350" as="targetPoint" />
          </mxGeometry>
        </mxCell>
        <mxCell id="Cpm7kUXZ52MSqkf3I4yN-4" value="&lt;b&gt;AI Agent&lt;/b&gt;" style="rounded=1;whiteSpace=wrap;html=1;fillColor=#04a68b;strokeColor=none;" vertex="1" parent="NX4XYnB-upziRBIt7shQ-1">
          <mxGeometry x="546" y="211" width="120" height="60" as="geometry" />
        </mxCell>
        <mxCell id="Cpm7kUXZ52MSqkf3I4yN-6" value="&lt;b&gt;Tools&lt;/b&gt;" style="rounded=1;whiteSpace=wrap;html=1;fillColor=#969696;strokeColor=none;" vertex="1" parent="NX4XYnB-upziRBIt7shQ-1">
          <mxGeometry x="540" y="100" width="120" height="50" as="geometry" />
        </mxCell>
        <mxCell id="Cpm7kUXZ52MSqkf3I4yN-8" value="Actions" style="text;whiteSpace=wrap;html=1;align=center;fontStyle=2" vertex="1" parent="NX4XYnB-upziRBIt7shQ-1">
          <mxGeometry x="600" y="166" width="50" height="30" as="geometry" />
        </mxCell>
        <mxCell id="Cpm7kUXZ52MSqkf3I4yN-9" value="&lt;b&gt;LLM&lt;/b&gt;" style="sketch=0;outlineConnect=0;fontColor=#232F3E;gradientColor=none;fillColor=#01A88D;strokeColor=none;dashed=0;verticalLabelPosition=bottom;verticalAlign=top;align=center;html=1;fontSize=12;fontStyle=0;aspect=fixed;pointerEvents=1;shape=mxgraph.aws4.sagemaker_model;" vertex="1" parent="NX4XYnB-upziRBIt7shQ-1">
          <mxGeometry x="756" y="201" width="78" height="78" as="geometry" />
        </mxCell>
        <mxCell id="Cpm7kUXZ52MSqkf3I4yN-11" value="Reasoning" style="text;whiteSpace=wrap;html=1;align=center;fontStyle=2" vertex="1" parent="NX4XYnB-upziRBIt7shQ-1">
          <mxGeometry x="686" y="206" width="50" height="30" as="geometry" />
        </mxCell>
        <mxCell id="H9xva-TxksqgOG86nZPT-2" value="Final Result" style="text;whiteSpace=wrap;html=1;align=center;fontStyle=2" vertex="1" parent="NX4XYnB-upziRBIt7shQ-1">
          <mxGeometry x="550" y="290" width="50" height="30" as="geometry" />
        </mxCell>
        <mxCell id="3lxN1gigSJOIWcfk6UuN-0" style="edgeStyle=elbowEdgeStyle;rounded=0;orthogonalLoop=1;jettySize=auto;elbow=vertical;html=1;entryX=0.45;entryY=-0.017;entryDx=0;entryDy=0;entryPerimeter=0;startArrow=classicThin;startFill=1;" edge="1" parent="NX4XYnB-upziRBIt7shQ-1" source="Cpm7kUXZ52MSqkf3I4yN-6" target="Cpm7kUXZ52MSqkf3I4yN-4">
          <mxGeometry relative="1" as="geometry" />
        </mxCell>
        <mxCell id="3lxN1gigSJOIWcfk6UuN-5" value="" style="edgeStyle=elbowEdgeStyle;rounded=0;orthogonalLoop=1;jettySize=auto;elbow=vertical;html=1;" edge="1" parent="NX4XYnB-upziRBIt7shQ-1">
          <mxGeometry relative="1" as="geometry">
            <mxPoint x="166" y="330" as="sourcePoint" />
            <mxPoint x="166" y="271" as="targetPoint" />
          </mxGeometry>
        </mxCell>
        <mxCell id="3lxN1gigSJOIWcfk6UuN-3" value="&lt;span style=&quot;color: rgb(0, 0, 0); font-family: Helvetica; font-size: 12px; font-style: italic; font-variant-ligatures: normal; font-variant-caps: normal; font-weight: 400; letter-spacing: normal; orphans: 2; text-align: center; text-indent: 0px; text-transform: none; widows: 2; word-spacing: 0px; -webkit-text-stroke-width: 0px; white-space: normal; background-color: rgb(251, 251, 251); text-decoration-thickness: initial; text-decoration-style: initial; text-decoration-color: initial; display: inline !important; float: none;&quot;&gt;User&lt;/span&gt;&lt;br style=&quot;forced-color-adjust: none; color: rgb(0, 0, 0); font-family: Helvetica; font-size: 12px; font-style: italic; font-variant-ligatures: normal; font-variant-caps: normal; font-weight: 400; letter-spacing: normal; orphans: 2; text-align: center; text-indent: 0px; text-transform: none; widows: 2; word-spacing: 0px; -webkit-text-stroke-width: 0px; white-space: normal; background-color: rgb(251, 251, 251); text-decoration-thickness: initial; text-decoration-style: initial; text-decoration-color: initial;&quot;&gt;&lt;span style=&quot;color: rgb(0, 0, 0); font-family: Helvetica; font-size: 12px; font-style: italic; font-variant-ligatures: normal; font-variant-caps: normal; font-weight: 400; letter-spacing: normal; orphans: 2; text-align: center; text-indent: 0px; text-transform: none; widows: 2; word-spacing: 0px; -webkit-text-stroke-width: 0px; white-space: normal; background-color: rgb(251, 251, 251); text-decoration-thickness: initial; text-decoration-style: initial; text-decoration-color: initial; display: inline !important; float: none;&quot;&gt;Prompt&lt;/span&gt;" style="text;whiteSpace=wrap;html=1;" vertex="1" parent="NX4XYnB-upziRBIt7shQ-1">
          <mxGeometry x="180" y="290" width="70" height="50" as="geometry" />
        </mxCell>
      </root>
    </mxGraphModel>
  </diagram>
</mxfile>
